<mxfile host="Electron" agent="Mozilla/5.0 (Windows NT 10.0; Win64; x64) AppleWebKit/537.36 (KHTML, like Gecko) draw.io/24.7.17 Chrome/128.0.6613.36 Electron/32.0.1 Safari/537.36" version="24.7.17">
  <diagram name="Page-1" id="fEEuSyUgRdQCTMryu_ct">
    <mxGraphModel dx="1418" dy="820" grid="1" gridSize="10" guides="1" tooltips="1" connect="1" arrows="1" fold="1" page="1" pageScale="1" pageWidth="850" pageHeight="1100" math="0" shadow="0">
      <root>
        <mxCell id="0" />
        <mxCell id="1" parent="0" />
        <mxCell id="Lr18kUt2LjFj2rly5dV9-11" style="edgeStyle=orthogonalEdgeStyle;rounded=0;orthogonalLoop=1;jettySize=auto;html=1;" edge="1" parent="1" source="Lr18kUt2LjFj2rly5dV9-1" target="Lr18kUt2LjFj2rly5dV9-3">
          <mxGeometry relative="1" as="geometry" />
        </mxCell>
        <mxCell id="Lr18kUt2LjFj2rly5dV9-12" style="edgeStyle=orthogonalEdgeStyle;rounded=0;orthogonalLoop=1;jettySize=auto;html=1;" edge="1" parent="1" source="Lr18kUt2LjFj2rly5dV9-1" target="Lr18kUt2LjFj2rly5dV9-5">
          <mxGeometry relative="1" as="geometry">
            <Array as="points">
              <mxPoint x="510" y="520" />
            </Array>
          </mxGeometry>
        </mxCell>
        <mxCell id="Lr18kUt2LjFj2rly5dV9-1" value="Okarina" style="rounded=1;whiteSpace=wrap;html=1;" vertex="1" parent="1">
          <mxGeometry x="365" y="490" width="120" height="60" as="geometry" />
        </mxCell>
        <mxCell id="Lr18kUt2LjFj2rly5dV9-13" style="edgeStyle=orthogonalEdgeStyle;rounded=0;orthogonalLoop=1;jettySize=auto;html=1;" edge="1" parent="1" source="Lr18kUt2LjFj2rly5dV9-2" target="Lr18kUt2LjFj2rly5dV9-1">
          <mxGeometry relative="1" as="geometry" />
        </mxCell>
        <mxCell id="Lr18kUt2LjFj2rly5dV9-15" style="edgeStyle=orthogonalEdgeStyle;rounded=0;orthogonalLoop=1;jettySize=auto;html=1;" edge="1" parent="1" source="Lr18kUt2LjFj2rly5dV9-2" target="Lr18kUt2LjFj2rly5dV9-14">
          <mxGeometry relative="1" as="geometry" />
        </mxCell>
        <mxCell id="Lr18kUt2LjFj2rly5dV9-2" value="VUPS&lt;div&gt;Importer&lt;/div&gt;" style="rounded=1;whiteSpace=wrap;html=1;" vertex="1" parent="1">
          <mxGeometry x="365" y="640" width="120" height="60" as="geometry" />
        </mxCell>
        <mxCell id="Lr18kUt2LjFj2rly5dV9-8" style="edgeStyle=orthogonalEdgeStyle;rounded=0;orthogonalLoop=1;jettySize=auto;html=1;" edge="1" parent="1" source="Lr18kUt2LjFj2rly5dV9-3" target="Lr18kUt2LjFj2rly5dV9-7">
          <mxGeometry relative="1" as="geometry" />
        </mxCell>
        <mxCell id="Lr18kUt2LjFj2rly5dV9-3" value="Documentz" style="rounded=1;whiteSpace=wrap;html=1;" vertex="1" parent="1">
          <mxGeometry x="240" y="330" width="120" height="60" as="geometry" />
        </mxCell>
        <mxCell id="Lr18kUt2LjFj2rly5dV9-10" style="edgeStyle=orthogonalEdgeStyle;rounded=0;orthogonalLoop=1;jettySize=auto;html=1;" edge="1" parent="1" source="Lr18kUt2LjFj2rly5dV9-4" target="Lr18kUt2LjFj2rly5dV9-9">
          <mxGeometry relative="1" as="geometry" />
        </mxCell>
        <mxCell id="Lr18kUt2LjFj2rly5dV9-4" value="Filez" style="rounded=1;whiteSpace=wrap;html=1;" vertex="1" parent="1">
          <mxGeometry x="450" y="190" width="120" height="60" as="geometry" />
        </mxCell>
        <mxCell id="Lr18kUt2LjFj2rly5dV9-6" style="edgeStyle=orthogonalEdgeStyle;rounded=0;orthogonalLoop=1;jettySize=auto;html=1;" edge="1" parent="1" source="Lr18kUt2LjFj2rly5dV9-5" target="Lr18kUt2LjFj2rly5dV9-4">
          <mxGeometry relative="1" as="geometry" />
        </mxCell>
        <mxCell id="Lr18kUt2LjFj2rly5dV9-5" value="Imagez" style="rounded=1;whiteSpace=wrap;html=1;" vertex="1" parent="1">
          <mxGeometry x="450" y="330" width="120" height="60" as="geometry" />
        </mxCell>
        <mxCell id="Lr18kUt2LjFj2rly5dV9-7" value="DB" style="shape=cylinder3;whiteSpace=wrap;html=1;boundedLbl=1;backgroundOutline=1;size=15;" vertex="1" parent="1">
          <mxGeometry x="270" y="40" width="60" height="80" as="geometry" />
        </mxCell>
        <mxCell id="Lr18kUt2LjFj2rly5dV9-9" value="FS" style="shape=cylinder3;whiteSpace=wrap;html=1;boundedLbl=1;backgroundOutline=1;size=15;" vertex="1" parent="1">
          <mxGeometry x="480" y="40" width="60" height="80" as="geometry" />
        </mxCell>
        <mxCell id="Lr18kUt2LjFj2rly5dV9-14" value="MS Access" style="shape=cylinder3;whiteSpace=wrap;html=1;boundedLbl=1;backgroundOutline=1;size=15;" vertex="1" parent="1">
          <mxGeometry x="140" y="630" width="60" height="80" as="geometry" />
        </mxCell>
      </root>
    </mxGraphModel>
  </diagram>
</mxfile>
